<?xml version="1.0" encoding="UTF-8"?>
<svg xmlns="http://www.w3.org/2000/svg" xmlns:xlink="http://www.w3.org/1999/xlink" viewBox="0 0 100 100" width="100px" height="100px">
<g id="surface28755">
<path style=" stroke:none;fill-rule:nonzero;fill:rgb(0%,47.843137%,21.568628%);fill-opacity:1;" d="M 2 6 L 2 30 L 6 30 L 6 96 L 94 96 L 94 30 L 98 30 L 98 6 Z M 6 10 L 94 10 L 94 26 L 6 26 Z M 10 30 L 90 30 L 90 92 L 10 92 Z M 35 38 C 31.15625 38 28 41.15625 28 45 C 28 48.84375 31.15625 52 35 52 L 65 52 C 68.84375 52 72 48.84375 72 45 C 72 41.15625 68.84375 38 65 38 Z M 35 42 L 65 42 C 66.679688 42 68 43.320312 68 45 C 68 46.679688 66.679688 48 65 48 L 35 48 C 33.320312 48 32 46.679688 32 45 C 32 43.320312 33.320312 42 35 42 Z M 35 42 "/>
</g>
</svg>
