<?xml version="1.0" encoding="UTF-8"?>
<svg xmlns="http://www.w3.org/2000/svg" xmlns:xlink="http://www.w3.org/1999/xlink" viewBox="0 0 64 64" width="64px" height="64px">
<g id="surface27207">
<path style=" stroke:none;fill-rule:nonzero;fill:rgb(0%,47.843137%,21.568628%);fill-opacity:1;" d="M 32 8 C 25.390625 8 20 13.390625 20 20 C 20 26.609375 25.390625 32 32 32 C 38.609375 32 44 26.609375 44 20 C 44 13.390625 38.609375 8 32 8 Z M 32 32 C 20.984375 32 12 40.984375 12 52 L 16 52 C 16 43.140625 23.140625 36 32 36 C 40.859375 36 48 43.140625 48 52 L 52 52 C 52 40.984375 43.015625 32 32 32 Z M 32 12 C 36.4375 12 40 15.5625 40 20 C 40 24.4375 36.4375 28 32 28 C 27.5625 28 24 24.4375 24 20 C 24 15.5625 27.5625 12 32 12 Z M 32 12 "/>
</g>
</svg>
