<?xml version="1.0" encoding="UTF-8"?>
<svg xmlns="http://www.w3.org/2000/svg" xmlns:xlink="http://www.w3.org/1999/xlink" viewBox="0 0 100 100" width="100px" height="100px">
<g id="surface21398">
<path style=" stroke:none;fill-rule:nonzero;fill:rgb(0%,47.843137%,21.568628%);fill-opacity:1;" d="M 68 0 C 50.359375 0 36 14.351562 36 32 C 36 35.921875 36.765625 39.648438 38.0625 43.125 L 0.5625 80.5625 L 0 81.1875 L 0 94.8125 L 0.5625 95.4375 L 4.5625 99.4375 L 5.1875 100 L 18.8125 100 L 19.4375 99.4375 L 25.4375 93.4375 L 26 92.8125 L 26 88 L 30.8125 88 L 31.4375 87.4375 L 37.4375 81.4375 L 38 80.8125 L 38 78 L 40.8125 78 L 41.4375 77.4375 L 45.4375 73.4375 L 46 72.8125 L 46 70 L 48.8125 70 L 49.4375 69.4375 L 56.875 61.9375 C 60.351562 63.234375 64.078125 64 68 64 C 85.640625 64 100 49.640625 100 32 C 100 14.351562 85.640625 0 68 0 Z M 68 4 C 83.476562 4 96 16.515625 96 32 C 96 47.476562 83.476562 60 68 60 C 64.15625 60 60.515625 59.273438 57.1875 57.875 C 57.164062 57.851562 57.148438 57.835938 57.125 57.8125 C 47.070312 53.5625 40 43.609375 40 32 C 40 16.515625 52.523438 4 68 4 Z M 68 10 C 62.367188 10 56.726562 12.148438 52.4375 16.4375 L 51 17.875 L 52.4375 19.25 L 80.75 47.5625 L 82.125 49 L 83.5625 47.5625 C 92.140625 38.992188 92.140625 25.007812 83.5625 16.4375 C 79.273438 12.148438 73.632812 10 68 10 Z M 68 14 C 72.601562 14 77.226562 15.726562 80.75 19.25 C 87.296875 25.796875 87.5 35.992188 81.875 43.0625 L 56.9375 18.125 C 60.203125 15.53125 64.046875 14 68 14 Z M 39.75 47.0625 C 42.742188 52.65625 47.34375 57.257812 52.9375 60.25 L 47.125 66 L 42 66 L 42 71.125 L 39.125 74 L 34 74 L 34 79.125 L 29.125 84 L 22 84 L 22 91.125 L 17.125 96 L 6.875 96 L 4.875 94 L 38 60.875 C 38.71875 60.257812 38.914062 59.226562 38.460938 58.398438 C 38.007812 57.5625 37.03125 57.164062 36.125 57.4375 C 35.742188 57.523438 35.398438 57.71875 35.125 58 L 4 89.1875 L 4 82.875 Z M 39.75 47.0625 "/>
</g>
</svg>
